<svg xmlns="http://www.w3.org/2000/svg" viewBox="0 0 12 12"><defs><style>.cls-1{fill:#eee5e9;}.cls-2{fill:#17172c;}.cls-3{fill:#0a0a1a;}.cls-4{fill:#1e4ba2;}</style></defs><title>camera-lense4</title><g id="Слой_2" data-name="Слой 2"><g id="Слой_1-2" data-name="Слой 1"><path class="cls-1" d="M12,6A6,6,0,1,1,6,0,6,6,0,0,1,12,6Z"/><path class="cls-2" d="M10.89,6A4.86,4.86,0,1,1,6,1.18,4.84,4.84,0,0,1,10.89,6Z"/><path class="cls-3" d="M9.19,6A3.19,3.19,0,1,1,6,2.81,3.19,3.19,0,0,1,9.19,6Z"/><path class="cls-4" d="M2.33,6A.35.35,0,0,1,2,6.35a.35.35,0,1,1,0-.7A.35.35,0,0,1,2.33,6Z"/></g></g></svg>