<svg xmlns="http://www.w3.org/2000/svg" viewBox="0 0 12 12"><defs><style>.cls-1{fill:#ecf0f1;}.cls-2{fill:#34495e;}.cls-3{fill:#2c3e50;}.cls-4{fill:#3498db;}</style></defs><title>camera-lense2</title><g id="Слой_2" data-name="Слой 2"><g id="Слой_1-2" data-name="Слой 1"><path class="cls-1" d="M12,6A6,6,0,1,1,6,0,6,6,0,0,1,12,6Z"/><path class="cls-2" d="M10,6A4,4,0,1,1,6,2,4,4,0,0,1,10,6Z"/><path class="cls-3" d="M9,5.91a3,3,0,1,1-3-3A3,3,0,0,1,9,5.91Z"/><path class="cls-2" d="M8,6A2,2,0,1,1,6,4,2,2,0,0,1,8,6Z"/><path class="cls-4" d="M7,6A1,1,0,1,1,6,5,1,1,0,0,1,7,6Z"/></g></g></svg>