<svg xmlns="http://www.w3.org/2000/svg" viewBox="0 0 12 12"><defs><style>.cls-1{fill:#ecf0f1;}.cls-2{fill:#34495e;}.cls-3{fill:#2c3e50;}.cls-4{fill:#3498db;}.cls-5{fill:none;stroke:#2c3e50;stroke-miterlimit:10;stroke-width:0.3px;}</style></defs><title>camera-lense3</title><g id="Слой_2" data-name="Слой 2"><g id="Слой_1-2" data-name="Слой 1"><path class="cls-1" d="M12,6A6,6,0,1,1,6,0,6,6,0,0,1,12,6Z"/><path class="cls-2" d="M10.89,6A4.86,4.86,0,1,1,6,1.18,4.84,4.84,0,0,1,10.89,6Z"/><path class="cls-3" d="M9.19,6A3.19,3.19,0,1,1,6,2.81,3.19,3.19,0,0,1,9.19,6Z"/><path class="cls-4" d="M2.6,4.48a.39.39,0,1,1-.77,0,.39.39,0,1,1,.77,0Z"/><path class="cls-3" d="M2.46,5.32a.25.25,0,0,1-.49,0,.25.25,0,1,1,.49,0Z"/><line class="cls-5" x1="9.07" y1="6" x2="10.89" y2="6"/></g></g></svg>